<svg width="740" height="133" viewBox="0 0 740 133" fill="none" xmlns="http://www.w3.org/2000/svg">
<g clip-path="url(#clip0_159_38)">
<path d="M168.102 0C147.946 0 129.94 8.76923 117.712 22.5874C105.35 8.76923 87.3434 0 67.3216 0C30.0999 0 0 29.7622 0 66.5664V133.133H33.5936V66.5664C33.5936 48.2308 48.7779 33.3497 67.1872 33.3497C85.5965 33.3497 100.781 48.3636 100.781 66.5664V133.133H134.374V66.5664C134.374 48.2308 149.559 33.3497 167.968 33.3497C186.512 33.3497 201.562 48.3636 201.562 66.5664V133.133H235.155V66.5664C235.424 29.7622 205.324 0 168.102 0Z" fill="white"/>
<path d="M706.272 0V66.5664C706.272 84.9021 691.088 99.7832 672.678 99.7832C654.135 99.7832 639.085 84.7692 639.085 66.5664V0H605.491V66.5664C605.491 103.238 635.591 133.133 672.813 133.133C710.035 133.133 740.134 103.371 740.134 66.5664V0H706.272Z" fill="white"/>
<path d="M504.442 33.2168C518.954 33.2168 531.451 42.5175 536.02 55.4056H570.688C565.448 23.9161 537.767 0 504.442 0C467.354 0 437.12 29.7622 437.12 66.5664C437.12 103.371 467.22 133.133 504.442 133.133C537.767 133.133 565.448 109.217 570.688 77.7273H536.154C531.585 90.6154 519.089 99.9161 504.576 99.9161C486.032 99.9161 470.982 84.9021 470.982 66.6993C470.848 48.2308 486.032 33.2168 504.442 33.2168Z" fill="white"/>
<path d="M369.933 9.03497C360.123 3.32168 348.567 0 336.339 0C299.252 0 269.018 29.7622 269.018 66.5664C269.018 103.238 299.117 133.133 336.339 133.133C348.567 133.133 360.123 129.811 369.933 124.098V133.133H403.526V0H369.933V9.03497ZM336.339 99.7832C317.796 99.7832 302.746 84.9021 302.746 66.5664C302.746 48.2308 317.796 33.3497 336.339 33.3497C354.883 33.3497 369.933 48.2308 369.933 66.5664C369.933 84.9021 354.883 99.7832 336.339 99.7832Z" fill="white"/>
</g>
<defs>
<clipPath id="clip0_159_38">
<rect width="740" height="133" fill="white"/>
</clipPath>
</defs>
</svg>
