<svg width="116" height="21" viewBox="0 0 116 21" fill="none" xmlns="http://www.w3.org/2000/svg">
<g clip-path="url(#clip0_9_3)">
<path d="M26.3512 0C23.1916 0 20.369 1.38462 18.4522 3.56643C16.5143 1.38462 13.6917 0 10.5531 0C4.71836 0 0 4.6993 0 10.5105V21.021H5.26602V10.5105C5.26602 7.61538 7.64627 5.26573 10.532 5.26573C13.4178 5.26573 15.7981 7.63636 15.7981 10.5105V21.021H21.0641V10.5105C21.0641 7.61538 23.4443 5.26573 26.3301 5.26573C29.237 5.26573 31.5961 7.63636 31.5961 10.5105V21.021H36.8622V10.5105C36.9043 4.6993 32.1859 0 26.3512 0Z" fill="#746B6B"/>
<path d="M110.713 0V10.5105C110.713 13.4056 108.333 15.7552 105.447 15.7552C102.54 15.7552 100.181 13.3846 100.181 10.5105V0H94.9148V10.5105C94.9148 16.3007 99.6332 21.021 105.468 21.021C111.303 21.021 116.021 16.3217 116.021 10.5105V0H110.713Z" fill="#746B6B"/>
<path d="M79.0746 5.24476C81.3495 5.24476 83.3085 6.71329 84.0247 8.74825H89.4592C88.6377 3.77622 84.2985 0 79.0746 0C73.2609 0 68.5215 4.6993 68.5215 10.5105C68.5215 16.3217 73.2398 21.021 79.0746 21.021C84.2985 21.021 88.6377 17.2448 89.4592 12.2727H84.0457C83.3295 14.3077 81.3706 15.7762 79.0957 15.7762C76.1888 15.7762 73.8296 13.4056 73.8296 10.5315C73.8086 7.61539 76.1888 5.24476 79.0746 5.24476Z" fill="#746B6B"/>
<path d="M57.9894 1.42657C56.4517 0.524476 54.6402 0 52.7234 0C46.9097 0 42.1703 4.6993 42.1703 10.5105C42.1703 16.3007 46.8886 21.021 52.7234 21.021C54.6402 21.021 56.4517 20.4965 57.9894 19.5944V21.021H63.2555V0H57.9894V1.42657ZM52.7234 15.7552C49.8166 15.7552 47.4574 13.4056 47.4574 10.5105C47.4574 7.61538 49.8166 5.26573 52.7234 5.26573C55.6303 5.26573 57.9894 7.61538 57.9894 10.5105C57.9894 13.4056 55.6303 15.7552 52.7234 15.7552Z" fill="#746B6B"/>
</g>
<defs>
<clipPath id="clip0_9_3">
<rect width="116" height="21" fill="white"/>
</clipPath>
</defs>
</svg>
